<svg width="50.001" height="55.473" viewBox="0 0 50.001 55.473" xmlns="http://www.w3.org/2000/svg"><g id="svgGroup" stroke-linecap="round" fill-rule="evenodd" font-size="9pt" stroke="#d6799d" stroke-width="0.75mm" fill="#69055d" style="stroke:#d6799d;stroke-width:0.75mm;fill:#69055d"><path d="M 3.027 10.843 L 0 10.843 Q 8.523 0.092 22.138 0.004 A 34.816 34.816 0 0 1 22.363 0.003 A 25.343 25.343 0 0 1 41.074 7.814 A 31.854 31.854 0 0 1 42.09 8.89 A 31.062 31.062 0 0 1 49.93 28.286 A 40.264 40.264 0 0 1 50 30.667 A 53.271 53.271 0 0 1 49.497 38.265 Q 48.2 47.241 43.555 51.956 A 12.775 12.775 0 0 1 39.947 54.473 A 11.187 11.187 0 0 1 35.254 55.472 A 15.861 15.861 0 0 1 31.134 54.965 A 11.464 11.464 0 0 1 25.781 51.859 A 68.574 68.574 0 0 1 25.06 51.034 Q 24.695 50.609 24.294 50.132 A 118.151 118.151 0 0 1 24.023 49.808 A 18.607 18.607 0 0 1 20.796 52.931 A 12.215 12.215 0 0 1 13.574 55.472 A 14.558 14.558 0 0 1 8.719 54.703 Q 4.887 53.355 2.525 49.648 A 15.517 15.517 0 0 1 2.441 49.515 Q 0.488 46.195 0.488 42.093 A 11.604 11.604 0 0 1 1.265 37.749 Q 2.405 34.899 5.218 33.042 A 13.905 13.905 0 0 1 6.25 32.425 Q 9.277 30.863 12.695 30.863 A 22.108 22.108 0 0 1 13.893 30.899 Q 15.193 30.97 16.98 31.181 A 85.138 85.138 0 0 1 17.578 31.253 Q 19.971 31.478 21.447 31.53 A 23.191 23.191 0 0 0 22.266 31.546 A 9.483 9.483 0 0 0 24.628 31.198 Q 27.664 30.304 28.205 27.164 A 8.449 8.449 0 0 0 28.32 25.882 A 8.37 8.37 0 0 0 27.17 21.46 Q 26.137 19.753 24.174 18.55 A 14.42 14.42 0 0 0 21.484 17.288 A 16.337 16.337 0 0 0 16.699 16.327 A 15.326 15.326 0 0 0 16.016 16.312 A 22.95 22.95 0 0 0 13.08 16.495 A 21.194 21.194 0 0 0 12.988 16.507 A 8.671 8.671 0 0 1 15.074 18.149 A 6.573 6.573 0 0 1 16.797 22.562 A 6.213 6.213 0 0 1 14.502 27.484 A 9.433 9.433 0 0 1 13.184 28.421 A 8.039 8.039 0 0 1 9.082 29.495 Q 4.867 29.495 2.531 26.206 A 9.579 9.579 0 0 1 2.441 26.078 Q 1.367 24.32 1.367 22.464 A 6.609 6.609 0 0 1 4.529 16.679 Q 5.707 15.892 7.325 15.321 A 19.233 19.233 0 0 1 8.887 14.847 A 22.635 22.635 0 0 1 12.399 14.215 A 29.557 29.557 0 0 1 15.43 14.066 Q 25.391 14.066 29.395 20.316 A 11.267 11.267 0 0 1 31.055 26.273 A 9.182 9.182 0 0 1 30.655 29.076 Q 29.765 31.861 26.892 33.149 A 9.679 9.679 0 0 1 26.27 33.402 A 11.253 11.253 0 0 1 22.938 34.068 A 13.087 13.087 0 0 1 22.266 34.085 A 31.52 31.52 0 0 1 20.705 34.044 Q 19.842 34.001 18.874 33.914 A 59.293 59.293 0 0 1 17.676 33.792 Q 15.582 33.568 13.889 33.515 A 32.212 32.212 0 0 0 12.891 33.499 A 13.219 13.219 0 0 0 9.928 33.808 Q 8.011 34.249 6.662 35.32 A 7.229 7.229 0 0 0 4.883 37.406 A 6.716 6.716 0 0 0 4.102 40.519 A 7.851 7.851 0 0 0 4.102 40.628 A 8.522 8.522 0 0 0 4.612 43.665 Q 5.476 45.946 7.802 47.252 A 10.256 10.256 0 0 0 9.082 47.855 A 10.997 10.997 0 0 0 12.231 48.587 A 13.243 13.243 0 0 0 13.379 48.636 A 14.878 14.878 0 0 0 16.425 48.347 Q 19.991 47.6 21.68 44.925 A 5.688 5.688 0 0 0 22.656 41.703 L 22.656 38.578 L 25.293 38.578 L 25.293 41.703 A 5.802 5.802 0 0 0 27.804 46.586 Q 28.731 47.274 30.001 47.804 A 14.185 14.185 0 0 0 30.371 47.953 A 13.043 13.043 0 0 0 34.863 48.734 Q 42.188 48.734 45.117 39.456 A 32.586 32.586 0 0 0 46.292 33.757 A 43.587 43.587 0 0 0 46.582 28.617 A 29.932 29.932 0 0 0 45.086 18.956 A 25.139 25.139 0 0 0 38.477 8.695 A 23.071 23.071 0 0 0 22.07 2.249 A 24.902 24.902 0 0 0 3.759 10.065 A 30.943 30.943 0 0 0 3.027 10.843 Z M 4.004 22.367 A 4.513 4.513 0 0 0 4.416 24.33 Q 4.904 25.356 5.971 26.053 A 6.422 6.422 0 0 0 6.934 26.566 A 5.368 5.368 0 0 0 9.18 27.054 Q 12.374 27.054 13.67 24.433 A 6.16 6.16 0 0 0 13.77 24.222 A 5.78 5.78 0 0 0 14.059 23.284 A 4.388 4.388 0 0 0 14.16 22.367 A 4.675 4.675 0 0 0 13.786 20.457 Q 13.295 19.346 12.158 18.614 A 6.255 6.255 0 0 0 11.328 18.167 A 5.441 5.441 0 0 0 9.952 17.742 A 4.782 4.782 0 0 0 9.18 17.679 A 6.015 6.015 0 0 0 7.253 17.97 Q 5.421 18.586 4.492 20.511 A 3.765 3.765 0 0 0 4.004 22.367 Z"/></g></svg>